HIERARCHY
ROOT root
{
	OFFSET	0	13.1	24.9
	CHANNELS 6  Xposition Yposition Zposition Xrotation Yrotation Zrotation
	JOINT spine_1
	{
		OFFSET	0	9.99999	0
		CHANNELS 3  Xrotation Yrotation Zrotation
		JOINT spine_2
		{
			OFFSET	0	112	-10
			CHANNELS 3  Xrotation Yrotation Zrotation
			JOINT spine_3
			{
				OFFSET	0	206.5	19.3
				CHANNELS 3  Xrotation Yrotation Zrotation
				JOINT spine_4
				{
					OFFSET	0	110.4	14.6
					CHANNELS 3  Xrotation Yrotation Zrotation
					JOINT neck_1
					{
						OFFSET	0	71.8	-50.3
						CHANNELS 3  Xrotation Yrotation Zrotation
						JOINT neck_2
						{
							OFFSET	0	86.2	-25.8
							CHANNELS 3  Xrotation Yrotation Zrotation
							JOINT head_ee
							{
								OFFSET	0	179.8	-8.7
								CHANNELS 3  Xrotation Yrotation Zrotation
								End Site
								{
									OFFSET	1	0	0
								}
							}
						}
					}
					JOINT left_clavicle
					{
						OFFSET	-43.2	22.4	-70.8
						CHANNELS 3  Xrotation Yrotation Zrotation
						JOINT left_shoulder
						{
							OFFSET	-93.9	-5.79999	48.7
							CHANNELS 3  Xrotation Yrotation Zrotation
							JOINT left_elbow
							{
								OFFSET	-291.4	-30.8	15.2
								CHANNELS 3  Xrotation Yrotation Zrotation
								JOINT left_lowarm_twist
								{
									OFFSET	-110.7	-3.89999	13.6
									CHANNELS 3  Xrotation Yrotation Zrotation
									JOINT left_hand
									{
										OFFSET	-110.7	-3.89999	13.6
										CHANNELS 3  Xrotation Yrotation Zrotation
										JOINT left_ee
										{
											OFFSET	-80.8	-5.10001	12.1
											CHANNELS 3  Xrotation Yrotation Zrotation
											End Site
											{
												OFFSET	1	0	0
											}
										}
									}
								}
							}
						}
					}
					JOINT right_clavicle
					{
						OFFSET	43.2	22.4	-70.8
						CHANNELS 3  Xrotation Yrotation Zrotation
						JOINT right_shoulder
						{
							OFFSET	93.9	-5.79999	48.7
							CHANNELS 3  Xrotation Yrotation Zrotation
							JOINT right_elbow
							{
								OFFSET	291.4	-30.8	15.2
								CHANNELS 3  Xrotation Yrotation Zrotation
								JOINT right_lowarm_twist
								{
									OFFSET	110.7	-3.89999	13.6
									CHANNELS 3  Xrotation Yrotation Zrotation
									JOINT right_hand
									{
										OFFSET	110.7	-3.89999	13.6
										CHANNELS 3  Xrotation Yrotation Zrotation
										JOINT right_ee
										{
											OFFSET	80.8	-5.10001	12.1
											CHANNELS 3  Xrotation Yrotation Zrotation
											End Site
											{
												OFFSET	1	0	0
											}
										}
									}
								}
							}
						}
					}
				}
			}
		}
	}
	JOINT left_hip
	{
		OFFSET	-82.8	-127.5	0.300001
		CHANNELS 3  Xrotation Yrotation Zrotation
		JOINT left_knee
		{
			OFFSET	-28.2	-396.7	2.2
			CHANNELS 3  Xrotation Yrotation Zrotation
			JOINT left_ankle
			{
				OFFSET	-11.7	-411.3	35.4
				CHANNELS 3  Xrotation Yrotation Zrotation
				JOINT left_toes
				{
					OFFSET	0	-60	-88.6
					CHANNELS 3  Xrotation Yrotation Zrotation
					JOINT left_foot_ee
					{
						OFFSET	-22.5	-16.5	-42.2
						CHANNELS 3  Xrotation Yrotation Zrotation
						End Site
						{
							OFFSET	1	0	0
						}
					}
				}
			}
		}
	}
	JOINT right_hip
	{
		OFFSET	82.8	-127.5	0.300001
		CHANNELS 3  Xrotation Yrotation Zrotation
		JOINT right_knee
		{
			OFFSET	28.2	-396.7	2.2
			CHANNELS 3  Xrotation Yrotation Zrotation
			JOINT right_ankle
			{
				OFFSET	11.7	-411.3	35.4
				CHANNELS 3  Xrotation Yrotation Zrotation
				JOINT right_toes
				{
					OFFSET	0	-60	-88.6
					CHANNELS 3  Xrotation Yrotation Zrotation
					JOINT right_foot_ee
					{
						OFFSET	22.5	-16.5	-42.2
						CHANNELS 3  Xrotation Yrotation Zrotation
						End Site
						{
							OFFSET	1	0	0
						}
					}
				}
			}
		}
	}
}
MOTION
Frames: 16
Frame Time: 0.02
503.754 767.297 -1350.44 -172.217 -26.9867 175.588 2.69497 1.28329 5.39924 2.71069 0.937653 5.46967 2.79708 0.0395707 5.54907 2.7553 0.914116 5.47364 -22.8771 5.34334 -16.8344 -22.6765 18.0308 -13.1991 -0.0 0.0 -0.0 -0.260267 14.435 1.27944 -22.3864 -25.4338 47.8924 0.470102 -13.1093 0.0540159 3.75873 0.117186 -0.465715 -1.46247 8.53469 -5.90765 -0.0 0.0 -0.0 13.8608 26.5062 -27.6143 -13.0745 31.9719 -63.3857 0.823222 22.1855 -0.161404 17.6929 -0.280506 2.23373 -2.03963 -4.1279 11.7961 0.0 0.0 0.0 17.6815 -28.7809 3.59499 -10.3783 0.286239 1.56484 32.8607 22.4746 -4.36811 -18.0937 0.0 0.0 -0.0 0.0 -0.0 10.4006 9.11543 8.04376 -8.48328 -0.255221 -1.27572 22.5998 -22.3944 3.16241 15.1026 -0.0 -0.0 0.0 0.0 0.0 
500.768 767.615 -1355.77 -171.328 -27.9682 176.031 2.68843 1.3813 5.4786 2.70453 1.03044 5.55506 2.80133 0.11816 5.6483 2.75825 1.00733 5.55929 -22.6293 5.00062 -17.4978 -22.3356 17.754 -14.015 -0.0 0.0 -0.0 -0.116902 14.8779 1.56336 -22.2938 -25.5093 48.5857 0.489963 -13.6428 0.0586106 4.12778 0.127038 -0.511828 -1.31432 8.61469 -4.91031 -0.0 0.0 -0.0 13.8131 26.0015 -27.5658 -12.3668 32.1086 -62.7383 0.838905 22.5661 -0.167374 17.6836 -0.280541 2.23256 -2.05435 -4.6003 11.6687 0.0 0.0 0.0 18.2106 -30.4259 3.59055 -9.10105 0.266383 1.36986 33.2688 22.116 -4.40403 -17.6549 0.0 0.0 -0.0 0.0 -0.0 11.1184 8.11305 8.12331 -7.39422 -0.233073 -1.11007 23.6067 -23.6894 3.30992 14.1409 -0.0 -0.0 0.0 0.0 0.0 
508.856 767.524 -1352.52 -170.775 -29.0265 176.395 2.67807 1.33556 5.31727 2.69324 0.995004 5.39118 2.78399 0.107899 5.48091 2.7434 0.970877 5.39557 -20.0491 2.3149 -16.2967 -19.5459 12.7596 -14.2716 -0.0 0.0 -0.0 -0.209584 16.7544 1.63966 -22.5077 -25.2417 50.0658 0.508839 -14.1477 0.0631438 5.09413 0.151425 -0.63286 -1.4713 8.99862 -5.75106 -0.0 0.0 -0.0 13.4212 22.7535 -27.0008 -11.3292 32.277 -62.5418 0.877157 23.4856 -0.182337 18.3659 -0.277467 2.31965 -2.01916 -5.70731 10.9013 0.0 0.0 0.0 18.1892 -30.4039 4.41496 -8.71591 0.259543 1.31116 33.0331 23.6371 -4.41428 -16.9664 0.0 0.0 -0.0 0.0 -0.0 10.9099 7.37368 8.58927 -7.0723 -0.225923 -1.06119 25.061 -26.8287 3.55495 13.0797 -0.0 -0.0 0.0 0.0 0.0 
513.378 765.337 -1358.3 -169.926 -31.6389 176.784 2.7233 1.01877 5.23784 2.7383 0.683888 5.29184 2.79818 -0.183022 5.33259 2.75913 0.660254 5.29483 -19.1118 1.64712 -16.3499 -18.5514 11.769 -14.6536 -0.0 0.0 -0.0 -0.259967 17.0907 1.60189 -21.6433 -25.1929 52.8337 0.535335 -14.8525 0.0697779 4.53968 0.137682 -0.563368 -1.76402 9.21719 -7.54648 -0.0 0.0 -0.0 13.7109 25.8863 -27.3412 -10.5022 32.4017 -61.2112 0.817187 22.0385 -0.159132 17.9626 -0.279409 2.26818 -2.15319 -5.7167 11.7927 0.0 0.0 0.0 18.2239 -30.1872 4.27297 -4.52919 0.159804 0.676545 32.8304 24.205 -4.40633 -17.5783 0.0 0.0 -0.0 0.0 -0.0 10.4816 6.94589 9.79328 -6.06458 -0.201767 -0.908432 26.1574 -27.3076 3.70308 12.347 -0.0 -0.0 0.0 0.0 0.0 
516.672 761.951 -1354.57 -169.486 -32.1129 176.966 2.81154 1.22938 5.32897 2.8269 0.888304 5.39613 2.90695 0.0130877 5.46853 2.86631 0.875298 5.39825 -18.9237 0.901569 -16.3892 -18.3173 10.4088 -14.9903 -0.0 0.0 -0.0 -0.212915 17.993 1.78214 -22.4384 -25.2343 53.1443 0.537769 -14.9171 0.0704032 4.58104 0.13873 -0.568547 -1.66982 9.68988 -6.71339 -0.0 0.0 -0.0 13.7029 25.2943 -27.3925 -10.3282 32.6381 -60.6201 0.894619 23.9011 -0.189354 18.0694 -0.27893 2.28181 -2.07523 -6.16123 11.0565 0.0 0.0 0.0 18.3792 -30.352 4.75595 -4.76627 0.166689 0.712278 31.777 25.6497 -4.32686 -16.2638 0.0 0.0 -0.0 0.0 -0.0 10.687 6.56189 10.1528 -7.27335 -0.23042 -1.09171 28.7335 -27.297 4.01705 11.9072 -0.0 -0.0 0.0 0.0 0.0 
527.694 759.792 -1354.35 -169.159 -33.4757 177.386 2.80917 1.26486 5.37052 2.82473 0.921076 5.43983 2.90855 0.0387386 5.51689 2.86725 0.908235 5.44198 -18.0903 -0.00765408 -16.1145 -17.4587 8.7489 -15.1148 -0.0 0.0 -0.0 -0.13959 18.7875 1.98645 -22.3461 -24.9848 54.4135 0.541435 -15.0142 0.0713498 4.89003 0.146444 -0.607264 -1.82442 10.5785 -7.2898 -0.0 0.0 -0.0 13.3782 25.604 -26.5998 -10.1305 32.9765 -59.5751 0.902359 24.0844 -0.192501 18.567 -0.276363 2.34531 -1.95863 -5.88332 10.4135 0.0 0.0 0.0 18.3889 -30.2869 5.34759 -3.84989 0.139256 0.574319 32.0199 26.1874 -4.369 -15.8476 0.0 0.0 -0.0 0.0 -0.0 10.0186 5.89403 10.9995 -7.26139 -0.230156 -1.0899 30.4858 -26.0543 4.19018 11.3624 -0.0 -0.0 0.0 0.0 0.0 
536.77 759.355 -1356.8 -168.7 -34.8154 177.887 2.52407 1.26231 5.36656 2.53962 0.918786 5.43572 2.62447 0.00971045 5.51259 2.58317 0.878891 5.44229 -18.1429 -0.301949 -16.0242 -17.5073 8.11823 -15.1346 -0.0 0.0 -0.0 0.259526 19.3665 2.6463 -22.3764 -24.8605 55.7817 0.54463 -15.0987 0.0721799 4.68824 0.14143 -0.581974 -1.78922 10.2416 -7.22343 -0.0 0.0 -0.0 13.3564 25.3782 -26.5752 -9.76135 33.1534 -58.3027 0.904681 24.1393 -0.19345 18.7216 -0.275453 2.36503 -1.93475 -6.01254 10.1929 0.0 0.0 0.0 18.4044 -30.2494 6.08833 -2.24107 0.0857649 0.333214 31.9081 27.1382 -4.38363 -15.6042 0.0 0.0 -0.0 0.0 -0.0 10.4429 5.06374 11.3503 -7.07309 -0.225941 -1.06131 32.0108 -26.8756 4.38762 11.641 -0.0 -0.0 0.0 0.0 0.0 
541.555 757.356 -1357.52 -168.734 -36.1818 177.961 2.32124 1.23003 5.31867 2.33653 0.889598 5.38589 2.41878 -0.0306362 5.45856 2.37819 0.830552 5.39528 -17.5469 -0.90366 -16.2236 -16.8725 7.24193 -15.5643 -0.0 0.0 -0.0 0.493976 20.1063 3.06711 -22.4558 -24.9524 57.103 0.505965 -14.071 0.0624431 4.89335 0.146526 -0.60768 -1.88467 11.3009 -7.33088 -0.0 0.0 -0.0 13.0882 25.4407 -25.9459 -9.49506 33.3771 -57.4543 0.918691 24.4696 -0.199216 18.4813 -0.276844 2.33437 -1.8382 -5.86567 9.62122 0.0 0.0 0.0 18.6855 -29.6541 6.64158 -2.18585 0.0838086 0.324964 31.6635 26.865 -4.34778 -15.45 0.0 0.0 -0.0 0.0 -0.0 10.3085 5.00824 11.673 -7.77729 -0.241222 -1.16829 32.6082 -26.7519 4.45144 11.2127 -0.0 -0.0 0.0 0.0 0.0 
548.24 753.592 -1359.13 -169.02 -37.3531 177.778 2.2775 1.24866 5.29217 2.29261 0.909875 5.36063 2.37661 -0.0103082 5.43707 2.33638 0.847247 5.37085 -17.2647 -1.11587 -15.2356 -16.6616 6.35837 -14.7143 -0.0 0.0 -0.0 0.715069 20.6592 3.44151 -22.5282 -24.6856 58.3508 0.526013 -14.6051 0.0674079 4.82571 0.144856 -0.599202 -1.8731 11.0533 -7.37559 -0.0 0.0 -0.0 13.2273 26.0692 -26.1949 -9.33298 33.6094 -56.5091 0.923653 24.5861 -0.201276 18.7329 -0.275385 2.36647 -1.86177 -6.14698 9.64429 0.0 0.0 0.0 18.5345 -30.1689 7.62271 -1.36553 0.0538126 0.202645 31.5025 27.403 -4.34504 -15.2845 0.0 0.0 -0.0 0.0 -0.0 10.4788 3.95368 11.7063 -7.98408 -0.245459 -1.19974 32.4784 -27.8739 4.47087 11.2846 -0.0 -0.0 0.0 0.0 0.0 
554.723 751.654 -1359.86 -168.569 -38.1177 178.294 2.16464 1.25065 5.31549 2.17989 0.910386 5.38403 2.26481 -0.0244548 5.46018 2.2242 0.83691 5.3959 -16.4277 -1.61515 -15.1611 -15.8164 5.58372 -14.8436 -0.0 0.0 -0.0 1.09738 21.2409 4.0424 -22.7046 -24.2062 59.2302 0.501583 -13.9539 0.061382 4.75444 0.143085 -0.590269 -1.98589 12.5249 -7.38563 -0.0 0.0 -0.0 13.2288 27.147 -26.0652 -9.23695 33.7911 -55.3687 0.928948 24.7103 -0.203484 18.6744 -0.275737 2.35901 -1.83316 -6.22162 9.41924 0.0 0.0 0.0 18.6879 -30.14 7.72615 -0.800323 0.0321259 0.118617 31.3461 27.3029 -4.32411 -15.1629 0.0 0.0 -0.0 0.0 -0.0 9.97169 3.19453 11.8599 -6.85821 -0.221016 -1.0287 32.631 -27.9879 4.49176 10.9756 -0.0 -0.0 0.0 0.0 0.0 
561.439 749.936 -1359.33 -168.254 -38.752 178.445 2.18964 1.22258 5.20528 2.20427 0.889354 5.27227 2.2854 -0.0241862 5.34649 2.24647 0.819299 5.28358 -16.0701 -1.84058 -14.704 -15.489 4.9809 -14.4966 -0.0 0.0 -0.0 1.23376 21.4832 4.25635 -22.602 -23.9224 59.7317 0.493624 -13.7409 0.0594772 4.97277 0.148474 -0.617639 -1.95083 12.0254 -7.40463 -0.0 0.0 -0.0 13.403 27.5484 -26.4159 -9.56863 33.9779 -54.7255 0.934701 24.8449 -0.205895 18.6537 -0.275859 2.35636 -1.78364 -6.25776 9.07426 0.0 0.0 0.0 18.9051 -30.091 8.06827 -0.353947 0.0144123 0.0524047 31.1847 27.1982 -4.30247 -15.0588 0.0 0.0 -0.0 0.0 -0.0 10.1474 2.74111 12.3731 -7.46398 -0.234585 -1.12067 32.4841 -28.4065 4.48844 10.921 -0.0 -0.0 0.0 0.0 0.0 
573.414 746.025 -1360.16 -168.52 -38.75 178.831 2.10591 1.2615 5.3901 2.1216 0.916484 5.45916 2.20853 -0.0367525 5.53521 2.16677 0.836562 5.47194 -15.2476 -2.06658 -14.1443 -14.7036 4.4291 -14.0637 -0.0 0.0 -0.0 1.46091 22.3467 4.6399 -22.6017 -23.4534 60.7316 0.458814 -12.805 0.051485 5.04049 0.150125 -0.626131 -2.02021 12.8246 -7.45772 -0.0 0.0 -0.0 13.3928 27.9733 -26.3355 -10.063 33.9994 -54.1059 0.937044 24.8996 -0.206881 18.5994 -0.276177 2.34944 -1.75885 -6.2902 8.89497 0.0 0.0 0.0 19.2166 -30.1018 7.4081 -0.434309 0.0176397 0.064315 31.1227 27.0661 -4.29152 -15.0191 0.0 0.0 -0.0 0.0 -0.0 9.9381 2.36492 12.7459 -7.27029 -0.230352 -1.09125 32.2426 -28.3676 4.4596 10.7212 -0.0 -0.0 0.0 0.0 0.0 
584.805 743.512 -1358.98 -168.162 -39.2272 179.186 2.12317 1.26954 5.40609 2.13895 0.923493 5.47563 2.22674 -0.030884 5.55264 2.18473 0.845098 5.48824 -16.3054 -0.11619 -13.2241 -15.8699 7.3687 -12.5043 -0.0 0.0 -0.0 1.49377 22.4155 4.69063 -22.4815 -23.1165 61.0886 0.444001 -12.4046 0.0482523 4.90373 0.146782 -0.608982 -2.14867 14.5216 -7.43361 -0.0 0.0 -0.0 13.3156 26.7581 -26.3151 -9.29829 34.3394 -54.269 0.988926 26.099 -0.229217 17.9953 -0.279265 2.27234 -1.61908 -4.41831 8.84163 0.0 0.0 0.0 19.3072 -30.0477 8.10689 -1.02829 0.040973 0.152484 29.0264 26.913 -4.04179 -14.6495 0.0 0.0 -0.0 0.0 -0.0 9.68075 2.09312 13.2202 -7.17362 -0.228202 -1.07657 32.2112 -27.2628 4.42181 10.5704 -0.0 -0.0 0.0 0.0 0.0 
592.126 742.481 -1357.72 -168.068 -39.1934 179.268 2.16855 1.27308 5.45181 2.1846 0.924134 5.52148 2.27295 -0.03361 5.59795 2.23025 0.849528 5.53341 -16.4918 -1.02207 -14.1626 -15.969 6.1285 -13.6942 -0.0 0.0 -0.0 1.57438 22.626 4.81721 -22.3188 -22.9633 61.3436 0.435076 -12.1628 0.0463535 5.42441 0.159291 -0.674318 -2.23805 15.2378 -7.63585 -0.0 0.0 -0.0 13.2275 26.4816 -26.1455 -9.35183 35.1405 -54.1843 0.985364 26.0174 -0.227653 17.8142 -0.280033 2.24923 -1.631 -5.66335 8.34246 0.0 0.0 0.0 19.6338 -29.9834 8.58678 -1.50904 0.0591866 0.224014 29.3204 27.1474 -4.08298 -14.8377 0.0 0.0 -0.0 0.0 -0.0 9.42036 1.8641 13.5369 -7.15849 -0.227864 -1.07427 32.061 -27.4881 4.4115 9.57934 -0.0 -0.0 0.0 0.0 0.0 
595.452 740.68 -1358.44 -168.152 -39.0269 179.183 2.25294 1.25841 5.43153 2.26889 0.91078 5.50031 2.35521 -0.0351756 5.57487 2.31286 0.844354 5.51086 -14.6472 -1.69401 -13.9374 -14.1225 5.16679 -13.7723 -0.0 0.0 -0.0 1.60716 22.2855 4.84135 -22.4475 -22.8001 61.7206 0.439737 -12.2891 0.0473406 5.62725 0.164003 -0.6998 -2.24674 15.2844 -7.6667 -0.0 0.0 -0.0 13.2117 26.6017 -26.094 -9.13443 35.5854 -54.5748 0.983362 25.9715 -0.226775 17.578 -0.280924 2.21907 -1.69891 -6.13429 8.57188 0.0 0.0 0.0 19.7627 -29.9081 8.86252 -2.62763 0.099236 0.39101 30.5671 26.9984 -4.22527 -14.8595 0.0 0.0 -0.0 0.0 -0.0 9.30038 1.70795 13.77 -7.10125 -0.226577 -1.06558 32.0203 -27.4596 4.40601 10.0376 -0.0 -0.0 0.0 0.0 0.0 
607.398 744.152 -1358.47 -168.174 -39.6077 179.556 2.30414 1.18505 5.32713 2.31952 0.844181 5.39148 2.39761 -0.0785777 5.45641 2.35694 0.782869 5.4007 -14.3224 -0.682727 -12.3784 -13.92 6.22029 -11.986 -0.0 0.0 -0.0 1.50056 22.2727 4.69061 -21.6712 -22.9887 62.518 0.443845 -12.4004 0.0482187 5.14856 0.152738 -0.639689 -2.55616 19.2221 -7.55075 -0.0 0.0 -0.0 13.2866 26.0062 -26.3398 -9.2972 35.0343 -54.9669 0.963205 25.5074 -0.218021 17.1773 -0.282152 2.1679 -1.86354 -6.20289 9.62946 0.0 0.0 0.0 19.6705 -29.8133 9.30373 -3.51874 0.1288 0.524572 30.5082 26.8818 -4.21518 -14.7153 0.0 0.0 -0.0 0.0 -0.0 8.97843 1.57157 13.9612 -7.24921 -0.229886 -1.08805 29.9823 -27.6034 4.17389 9.5001 -0.0 -0.0 0.0 0.0 0.0 
